<svg width="16" height="16" viewBox="0 0 16 16" fill="none" xmlns="http://www.w3.org/2000/svg">
<g clip-path="url(#clip0_159_80)">
<g filter="url(#filter0_d_159_80)">
<path d="M9.156 14.544C10.899 13.01 14 9.876 14 7C14 5.4087 13.3679 3.88258 12.2426 2.75736C11.1174 1.63214 9.5913 1 8 1C6.4087 1 4.88258 1.63214 3.75736 2.75736C2.63214 3.88258 2 5.4087 2 7C2 9.876 5.1 13.01 6.844 14.544C7.16211 14.8279 7.5736 14.9849 8 14.9849C8.4264 14.9849 8.83789 14.8279 9.156 14.544ZM6 7C6 6.46957 6.21071 5.96086 6.58579 5.58579C6.96086 5.21071 7.46957 5 8 5C8.53043 5 9.03914 5.21071 9.41421 5.58579C9.78929 5.96086 10 6.46957 10 7C10 7.53043 9.78929 8.03914 9.41421 8.41421C9.03914 8.78929 8.53043 9 8 9C7.46957 9 6.96086 8.78929 6.58579 8.41421C6.21071 8.03914 6 7.53043 6 7Z" fill="#FF4D4F"/>
<path d="M8.82567 14.1687L8.82566 14.1687L8.82305 14.171C8.59656 14.3731 8.30359 14.4849 8 14.4849C7.69641 14.4849 7.40344 14.3731 7.17695 14.171L7.17423 14.1686C6.31514 13.4129 5.13281 12.2721 4.16916 10.9768C3.19497 9.66734 2.5 8.27352 2.5 7C2.5 5.54131 3.07946 4.14236 4.11091 3.11091C5.14236 2.07946 6.54131 1.5 8 1.5C9.45869 1.5 10.8576 2.07946 11.8891 3.11091C12.9205 4.14236 13.5 5.54131 13.5 7C13.5 8.27348 12.8048 9.66728 11.8305 10.9768C10.8667 12.2721 9.68435 13.4129 8.82567 14.1687ZM6.23223 5.23223C5.76339 5.70107 5.5 6.33696 5.5 7C5.5 7.66304 5.76339 8.29893 6.23223 8.76777C6.70107 9.23661 7.33696 9.5 8 9.5C8.66304 9.5 9.29893 9.23661 9.76777 8.76777C10.2366 8.29893 10.5 7.66304 10.5 7C10.5 6.33696 10.2366 5.70107 9.76777 5.23223C9.29893 4.76339 8.66304 4.5 8 4.5C7.33696 4.5 6.70107 4.76339 6.23223 5.23223Z" stroke="black"/>
</g>
</g>
<defs>
<filter id="filter0_d_159_80" x="1" y="1" width="14" height="15.9849" filterUnits="userSpaceOnUse" color-interpolation-filters="sRGB">
<feFlood flood-opacity="0" result="BackgroundImageFix"/>
<feColorMatrix in="SourceAlpha" type="matrix" values="0 0 0 0 0 0 0 0 0 0 0 0 0 0 0 0 0 0 127 0" result="hardAlpha"/>
<feOffset dy="1"/>
<feGaussianBlur stdDeviation="0.5"/>
<feComposite in2="hardAlpha" operator="out"/>
<feColorMatrix type="matrix" values="0 0 0 0 0 0 0 0 0 0 0 0 0 0 0 0 0 0 0.25 0"/>
<feBlend mode="normal" in2="BackgroundImageFix" result="effect1_dropShadow_159_80"/>
<feBlend mode="normal" in="SourceGraphic" in2="effect1_dropShadow_159_80" result="shape"/>
</filter>
<clipPath id="clip0_159_80">
<rect width="16" height="16" fill="white"/>
</clipPath>
</defs>
</svg>
