<svg width="14" height="14" viewBox="0 0 14 14" fill="none" xmlns="http://www.w3.org/2000/svg">
<path fill-rule="evenodd" clip-rule="evenodd" d="M4.233 2.75297C4.968 2.02129 5.96289 1.6105 7 1.6105C8.03711 1.6105 9.032 2.02129 9.767 2.75297C9.90918 2.88545 10.0972 2.95758 10.2915 2.95415C10.4858 2.95072 10.6712 2.87201 10.8086 2.73459C10.946 2.59718 11.0247 2.4118 11.0282 2.2175C11.0316 2.02319 10.9595 1.83515 10.827 1.69297C9.8107 0.68008 8.43435 0.111328 6.9995 0.111328C5.56465 0.111328 4.18829 0.68008 3.172 1.69297C3.1004 1.76219 3.0433 1.84498 3.00404 1.9365C2.96478 2.02802 2.94414 2.12644 2.94332 2.22603C2.9425 2.32561 2.96152 2.42436 2.99928 2.51652C3.03703 2.60867 3.09276 2.69238 3.16321 2.76277C3.23366 2.83316 3.31743 2.88881 3.40962 2.92647C3.50181 2.96414 3.60058 2.98307 3.70016 2.98216C3.79974 2.98125 3.89815 2.96051 3.98963 2.92116C4.08112 2.88181 4.16385 2.82464 4.233 2.75297ZM6.95 6.26597C7.14891 6.26597 7.33968 6.18696 7.48033 6.0463C7.62098 5.90565 7.7 5.71488 7.7 5.51597C7.7 5.31706 7.62098 5.1263 7.48033 4.98564C7.33968 4.84499 7.14891 4.76597 6.95 4.76597C6.75109 4.76597 6.56032 4.84499 6.41967 4.98564C6.27902 5.1263 6.2 5.31706 6.2 5.51597C6.2 5.71488 6.27902 5.90565 6.41967 6.0463C6.56032 6.18696 6.75109 6.26597 6.95 6.26597ZM7.945 4.21797C7.418 3.69097 6.485 3.69097 5.958 4.21797C5.88934 4.29166 5.80654 4.35076 5.71454 4.39175C5.62254 4.43275 5.52323 4.45479 5.42252 4.45656C5.32182 4.45834 5.22179 4.43982 5.1284 4.4021C5.03501 4.36437 4.95018 4.30823 4.87896 4.23701C4.80774 4.16579 4.7516 4.08096 4.71388 3.98757C4.67616 3.89418 4.65763 3.79415 4.65941 3.69345C4.66119 3.59275 4.68323 3.49343 4.72422 3.40143C4.76521 3.30944 4.82431 3.22664 4.898 3.15797C6.011 2.04397 7.893 2.04397 9.006 3.15797C9.13848 3.30015 9.2106 3.48819 9.20718 3.6825C9.20375 3.8768 9.12504 4.06218 8.98762 4.19959C8.85021 4.33701 8.66482 4.41572 8.47052 4.41915C8.27622 4.42258 8.08718 4.35045 7.945 4.21797ZM1.99 2.98097C1.96474 2.88521 1.92077 2.79541 1.86062 2.71673C1.80047 2.63806 1.72533 2.57208 1.63955 2.52259C1.55376 2.47311 1.45903 2.44111 1.36081 2.42843C1.26259 2.41575 1.16283 2.42265 1.0673 2.44873C0.971758 2.47481 0.882332 2.51955 0.804177 2.58038C0.726022 2.6412 0.660687 2.7169 0.611943 2.80311C0.563198 2.88931 0.53201 2.98432 0.520177 3.08264C0.508344 3.18097 0.516101 3.28066 0.543 3.37597L1.599 7.24997H3.153L1.99 2.98097ZM13.459 3.37597L12.4 7.24997H10.846L12.01 2.98097C12.0637 2.79061 12.1905 2.62918 12.3627 2.53183C12.5348 2.43447 12.7385 2.40907 12.9293 2.46116C13.1201 2.51325 13.2826 2.63861 13.3815 2.80994C13.4803 2.98128 13.5074 3.18472 13.457 3.37597H13.459ZM2.427 13.214V12.5H1.5C1.23478 12.5 0.98043 12.3946 0.792893 12.2071C0.605357 12.0195 0.5 11.7652 0.5 11.5V9.49997C0.5 9.23476 0.605357 8.9804 0.792893 8.79287C0.98043 8.60533 1.23478 8.49997 1.5 8.49997H12.5C12.7652 8.49997 13.0196 8.60533 13.2071 8.79287C13.3946 8.9804 13.5 9.23476 13.5 9.49997V11.5C13.5 11.7652 13.3946 12.0195 13.2071 12.2071C13.0196 12.3946 12.7652 12.5 12.5 12.5H11.573V13.214C11.573 13.4129 11.494 13.6037 11.3533 13.7443C11.2127 13.885 11.0219 13.964 10.823 13.964C10.6241 13.964 10.4333 13.885 10.2927 13.7443C10.152 13.6037 10.073 13.4129 10.073 13.214V12.5H3.927V13.214C3.927 13.4129 3.84798 13.6037 3.70733 13.7443C3.56668 13.885 3.37591 13.964 3.177 13.964C2.97809 13.964 2.78732 13.885 2.64667 13.7443C2.50602 13.6037 2.427 13.4129 2.427 13.214ZM2.677 10.347C2.677 10.2144 2.72968 10.0872 2.82345 9.99342C2.91721 9.89965 3.04439 9.84697 3.177 9.84697H3.655C3.78761 9.84697 3.91479 9.89965 4.00855 9.99342C4.10232 10.0872 4.155 10.2144 4.155 10.347C4.155 10.4796 4.10232 10.6068 4.00855 10.7005C3.91479 10.7943 3.78761 10.847 3.655 10.847H3.177C3.04439 10.847 2.91721 10.7943 2.82345 10.7005C2.72968 10.6068 2.677 10.4796 2.677 10.347ZM5.567 9.84697C5.43439 9.84697 5.30721 9.89965 5.21345 9.99342C5.11968 10.0872 5.067 10.2144 5.067 10.347C5.067 10.4796 5.11968 10.6068 5.21345 10.7005C5.30721 10.7943 5.43439 10.847 5.567 10.847H6.044C6.17661 10.847 6.30379 10.7943 6.39755 10.7005C6.49132 10.6068 6.544 10.4796 6.544 10.347C6.544 10.2144 6.49132 10.0872 6.39755 9.99342C6.30379 9.89965 6.17661 9.84697 6.044 9.84697H5.567Z" fill="black"/>
</svg>
