<svg width="24" height="24" viewBox="0 0 24 24" fill="none" xmlns="http://www.w3.org/2000/svg">
<rect x="0.5" y="0.5" width="23" height="23" rx="1.5" fill="white"/>
<rect x="0.5" y="0.5" width="23" height="23" rx="1.5" stroke="#969696"/>
<path d="M12 7C10.9395 7.00125 9.92283 7.42308 9.17296 8.17295C8.42308 8.92283 8.00126 9.93952 8 11C7.99873 11.8666 8.28182 12.7097 8.80582 13.4C8.80582 13.4 8.91491 13.5436 8.93273 13.5644L12 17.1818L15.0687 13.5625C15.0847 13.5433 15.1942 13.4 15.1942 13.4L15.1945 13.3989C15.7183 12.7089 16.0012 11.8662 16 11C15.9987 9.93952 15.5769 8.92283 14.827 8.17295C14.0772 7.42308 13.0605 7.00125 12 7ZM12 12.4545C11.7123 12.4545 11.4311 12.3692 11.1919 12.2094C10.9527 12.0496 10.7663 11.8224 10.6562 11.5566C10.5461 11.2908 10.5173 10.9984 10.5734 10.7162C10.6295 10.4341 10.7681 10.1749 10.9715 9.97148C11.1749 9.76806 11.4341 9.62952 11.7162 9.5734C11.9984 9.51728 12.2908 9.54608 12.5566 9.65617C12.8224 9.76626 13.0496 9.9527 13.2094 10.1919C13.3692 10.4311 13.4545 10.7123 13.4545 11C13.4541 11.3856 13.3007 11.7553 13.028 12.028C12.7553 12.3007 12.3856 12.4541 12 12.4545Z" fill="#424242"/>
<circle cx="12" cy="11" r="2" fill="white"/>
</svg>
