<svg width="13" height="18" viewBox="0 0 13 18" fill="none" xmlns="http://www.w3.org/2000/svg">
<path d="M6.60031 1C3.52207 1 1 3.51487 1 6.58431C1 7.77342 1.37984 8.8787 2.02272 9.78734L5.91679 16.519C6.46223 17.2315 6.82479 17.0961 7.27838 16.4814L11.5733 9.17214C11.66 9.01518 11.728 8.84798 11.7873 8.67742C12.0599 8.01325 12.2001 7.30223 12.2 6.58431C12.2 3.51487 9.67838 1 6.60031 1ZM6.60031 3.61663C8.25774 3.61663 9.57582 4.93151 9.57582 6.58431C9.57582 8.2371 8.25774 9.55134 6.60031 9.55134C4.94271 9.55134 3.62415 8.23694 3.62415 6.58431C3.62415 4.93151 4.94287 3.61663 6.60031 3.61663Z" fill="#FF4D4F" stroke="#D10002"/>
</svg>
