<svg width="24" height="24" viewBox="0 0 24 24" fill="none" xmlns="http://www.w3.org/2000/svg">
<rect x="0.5" y="0.5" width="23" height="23" rx="5.5" fill="#1677FF"/>
<rect x="0.5" y="0.5" width="23" height="23" rx="5.5" stroke="#1B55DD"/>
<g clip-path="url(#clip0_291_147)">
<path d="M12 9.99998C12.1768 9.99998 12.3464 10.0702 12.4714 10.1952C12.5964 10.3203 12.6667 10.4898 12.6667 10.6667V13.3333H16.6667C17.0203 13.3333 17.3594 13.4738 17.6095 13.7238C17.8595 13.9739 18 14.313 18 14.6667V16.6667C18 17.0203 17.8595 17.3594 17.6095 17.6095C17.3594 17.8595 17.0203 18 16.6667 18H7.33334C6.97972 18 6.64058 17.8595 6.39053 17.6095C6.14048 17.3594 6 17.0203 6 16.6667V14.6667C6 14.313 6.14048 13.9739 6.39053 13.7238C6.64058 13.4738 6.97972 13.3333 7.33334 13.3333H11.3333V10.6667C11.3333 10.4898 11.4036 10.3203 11.5286 10.1952C11.6536 10.0702 11.8232 9.99998 12 9.99998ZM8.44134 6.63932C8.57381 6.75631 8.6544 6.92112 8.6654 7.09751C8.6764 7.2739 8.61691 7.44744 8.5 7.57998C7.74658 8.43149 7.3315 9.52968 7.33334 10.6667C7.33334 10.8647 7.34534 11.06 7.36934 11.2507C7.38684 11.4238 7.3359 11.597 7.2274 11.7332C7.11891 11.8693 6.96147 11.9576 6.78874 11.9792C6.616 12.0008 6.44167 11.9539 6.30301 11.8487C6.16435 11.7435 6.07234 11.5882 6.04667 11.416C6.01562 11.1674 6.00004 10.9172 6 10.6667C5.99815 9.20489 6.53176 7.79308 7.5 6.69798C7.55794 6.63229 7.62826 6.57867 7.70693 6.54016C7.78561 6.50166 7.87109 6.47904 7.95851 6.47359C8.04593 6.46814 8.13357 6.47998 8.21642 6.50841C8.29926 6.53685 8.37569 6.58133 8.44134 6.63932ZM16.5 6.69798C17.4683 7.79308 18.0019 9.20489 18 10.6667C18 10.92 17.984 11.17 17.9533 11.416C17.9444 11.5044 17.9179 11.5902 17.8753 11.6682C17.8328 11.7462 17.775 11.8149 17.7055 11.8703C17.636 11.9257 17.5562 11.9667 17.4706 11.9907C17.3851 12.0148 17.2955 12.0215 17.2074 12.0105C17.1192 11.9995 17.0341 11.9709 16.9571 11.9265C16.8801 11.8821 16.8127 11.8228 16.759 11.752C16.7053 11.6812 16.6662 11.6004 16.6442 11.5143C16.6222 11.4282 16.6176 11.3386 16.6307 11.2507C16.654 11.06 16.6667 10.8647 16.6667 10.6667C16.6685 9.52968 16.2534 8.43149 15.5 7.57998C15.4421 7.51432 15.3977 7.4379 15.3693 7.35507C15.3409 7.27225 15.3291 7.18464 15.3346 7.09727C15.3457 6.92079 15.4264 6.75594 15.559 6.63898C15.6247 6.58107 15.7011 6.53666 15.7839 6.50828C15.8667 6.4799 15.9543 6.46812 16.0417 6.4736C16.2182 6.48466 16.383 6.56538 16.5 6.69798ZM10.4413 8.40265C10.507 8.46059 10.5607 8.5309 10.5992 8.60958C10.6377 8.68825 10.6603 8.77374 10.6657 8.86116C10.6712 8.94858 10.6593 9.03622 10.6309 9.11906C10.6025 9.20191 10.558 9.27834 10.5 9.34398C10.3116 9.55647 10.1709 9.80681 10.0873 10.0782C10.0037 10.3496 9.9792 10.6357 10.0153 10.9173C10.0328 11.0905 9.9819 11.2637 9.8734 11.3998C9.76491 11.536 9.60747 11.6243 9.43474 11.6458C9.262 11.6674 9.08767 11.6206 8.94901 11.5154C8.81035 11.4101 8.71834 11.2548 8.69267 11.0827C8.63304 10.6135 8.67421 10.1371 8.81344 9.68517C8.95266 9.23324 9.18673 8.81622 9.5 8.46198C9.61688 8.32962 9.7815 8.24903 9.95773 8.23791C10.134 8.22679 10.3074 8.28603 10.44 8.40265H10.4413ZM14.5 8.46132C14.8134 8.81561 15.0476 9.23273 15.1868 9.68479C15.326 10.1369 15.3671 10.6134 15.3073 11.0827C15.2817 11.2548 15.1897 11.4101 15.051 11.5154C14.9123 11.6206 14.738 11.6674 14.5653 11.6458C14.3925 11.6243 14.2351 11.536 14.1266 11.3998C14.0181 11.2637 13.9672 11.0905 13.9847 10.9173C14.0209 10.6357 13.9965 10.3496 13.913 10.0783C13.8295 9.80689 13.6889 9.55653 13.5007 9.34398C13.4425 9.27841 13.3978 9.20199 13.3691 9.11911C13.3405 9.03623 13.3285 8.94852 13.3338 8.861C13.3392 8.77348 13.3617 8.68787 13.4002 8.60907C13.4386 8.53027 13.4922 8.45983 13.5579 8.40178C13.6237 8.34374 13.7002 8.29923 13.7831 8.2708C13.8661 8.24237 13.9538 8.23058 14.0413 8.23611C14.1288 8.24164 14.2144 8.26438 14.2931 8.30303C14.3718 8.34167 14.4421 8.39546 14.5 8.46132Z" fill="white"/>
</g>
<defs>
<clipPath id="clip0_291_147">
<rect width="16" height="16" fill="white" transform="translate(4 4)"/>
</clipPath>
</defs>
</svg>
