<svg width="24" height="24" viewBox="0 0 24 24" fill="none" xmlns="http://www.w3.org/2000/svg">
<rect x="0.5" y="0.5" width="23" height="23" rx="5.5" fill="#1677FF"/>
<rect x="0.5" y="0.5" width="23" height="23" rx="5.5" stroke="#1B55DD"/>
<path fill-rule="evenodd" clip-rule="evenodd" d="M9.02015 7.66974C9.81169 6.93027 10.8831 6.51512 12 6.51512C13.1169 6.51512 14.1883 6.93027 14.9798 7.66974C15.133 7.80363 15.3355 7.87652 15.5447 7.87306C15.754 7.8696 15.9536 7.79005 16.1016 7.65117C16.2496 7.5123 16.3343 7.32494 16.338 7.12857C16.3417 6.9322 16.2641 6.74216 16.1214 6.59847C15.0269 5.5748 13.5447 5 11.9995 5C10.4542 5 8.97201 5.5748 7.87754 6.59847C7.80043 6.66842 7.73894 6.75209 7.69666 6.84459C7.65438 6.93708 7.63215 7.03655 7.63126 7.1372C7.63038 7.23784 7.65087 7.33764 7.69153 7.43077C7.73219 7.52391 7.7922 7.60851 7.86807 7.67965C7.94395 7.75078 8.03415 7.80702 8.13344 7.84509C8.23272 7.88316 8.33908 7.90229 8.44633 7.90137C8.55357 7.90045 8.65954 7.87949 8.75807 7.83972C8.85659 7.79995 8.94568 7.74217 9.02015 7.66974ZM11.9462 11.2201C12.1604 11.2201 12.3658 11.1403 12.5173 10.9981C12.6688 10.856 12.7538 10.6632 12.7538 10.4621C12.7538 10.2611 12.6688 10.0683 12.5173 9.92616C12.3658 9.78402 12.1604 9.70416 11.9462 9.70416C11.7319 9.70416 11.5265 9.78402 11.375 9.92616C11.2236 10.0683 11.1385 10.2611 11.1385 10.4621C11.1385 10.6632 11.2236 10.856 11.375 10.9981C11.5265 11.1403 11.7319 11.2201 11.9462 11.2201ZM13.0177 9.15033C12.4502 8.61772 11.4454 8.61772 10.8778 9.15033C10.8039 9.2248 10.7147 9.28453 10.6157 9.32596C10.5166 9.36739 10.4096 9.38966 10.3012 9.39146C10.1927 9.39325 10.085 9.37453 9.98443 9.33641C9.88386 9.29829 9.7925 9.24155 9.71581 9.16957C9.63911 9.09759 9.57864 9.01186 9.53802 8.91748C9.4974 8.82309 9.47745 8.722 9.47936 8.62023C9.48128 8.51845 9.50501 8.41808 9.54916 8.3251C9.5933 8.23213 9.65695 8.14845 9.73631 8.07905C10.9349 6.9532 12.9617 6.9532 14.1603 8.07905C14.303 8.22274 14.3807 8.41279 14.377 8.60915C14.3733 8.80552 14.2885 8.99288 14.1405 9.13175C13.9925 9.27063 13.7929 9.35018 13.5836 9.35364C13.3744 9.35711 13.1708 9.28422 13.0177 9.15033ZM6.60462 7.90017C6.57741 7.80339 6.53006 7.71263 6.46528 7.63312C6.40051 7.55361 6.31959 7.48692 6.22721 7.43691C6.13482 7.3869 6.0328 7.35456 5.92703 7.34175C5.82125 7.32894 5.71382 7.33591 5.61093 7.36227C5.50805 7.38862 5.41174 7.43384 5.32758 7.49531C5.24341 7.55678 5.17305 7.63329 5.12055 7.72041C5.06806 7.80754 5.03447 7.90355 5.02173 8.00292C5.00899 8.10229 5.01734 8.20305 5.04631 8.29937L6.18354 12.2146H7.85708L6.60462 7.90017ZM18.9558 8.29937L17.8154 12.2146H16.1418L17.3954 7.90017C17.4532 7.70778 17.5897 7.54464 17.7752 7.44625C17.9606 7.34786 18.1799 7.32219 18.3854 7.37483C18.5909 7.42747 18.7659 7.55416 18.8724 7.72732C18.9788 7.90048 19.008 8.10608 18.9537 8.29937H18.9558ZM7.07523 18.242V17.5204H6.07692C5.79131 17.5204 5.51739 17.4139 5.31542 17.2244C5.11346 17.0349 5 16.7778 5 16.5098V14.4885C5 14.2205 5.11346 13.9634 5.31542 13.7739C5.51739 13.5844 5.79131 13.4779 6.07692 13.4779H17.9231C18.2087 13.4779 18.4826 13.5844 18.6846 13.7739C18.8865 13.9634 19 14.2205 19 14.4885V16.5098C19 16.7778 18.8865 17.0349 18.6846 17.2244C18.4826 17.4139 18.2087 17.5204 17.9231 17.5204H16.9248V18.242C16.9248 18.443 16.8397 18.6358 16.6882 18.778C16.5367 18.9201 16.3313 19 16.1171 19C15.9029 19 15.6974 18.9201 15.546 18.778C15.3945 18.6358 15.3094 18.443 15.3094 18.242V17.5204H8.69062V18.242C8.69062 18.443 8.60552 18.6358 8.45405 18.778C8.30258 18.9201 8.09714 19 7.88292 19C7.66871 19 7.46327 18.9201 7.3118 18.778C7.16033 18.6358 7.07523 18.443 7.07523 18.242ZM7.34446 15.3445C7.34446 15.2105 7.40119 15.082 7.50217 14.9872C7.60315 14.8924 7.74011 14.8392 7.88292 14.8392H8.39769C8.5405 14.8392 8.67746 14.8924 8.77844 14.9872C8.87942 15.082 8.93615 15.2105 8.93615 15.3445C8.93615 15.4785 8.87942 15.6071 8.77844 15.7018C8.67746 15.7966 8.5405 15.8498 8.39769 15.8498H7.88292C7.74011 15.8498 7.60315 15.7966 7.50217 15.7018C7.40119 15.6071 7.34446 15.4785 7.34446 15.3445ZM10.4568 14.8392C10.314 14.8392 10.177 14.8924 10.076 14.9872C9.97504 15.082 9.91831 15.2105 9.91831 15.3445C9.91831 15.4785 9.97504 15.6071 10.076 15.7018C10.177 15.7966 10.314 15.8498 10.4568 15.8498H10.9705C11.1133 15.8498 11.2502 15.7966 11.3512 15.7018C11.4522 15.6071 11.5089 15.4785 11.5089 15.3445C11.5089 15.2105 11.4522 15.082 11.3512 14.9872C11.2502 14.8924 11.1133 14.8392 10.9705 14.8392H10.4568Z" fill="white"/>
</svg>
